<?xml version="1.0" encoding="UTF-8"?>
<svg width="700pt" height="700pt" version="1.1" viewBox="0 0 700 700" xmlns="http://www.w3.org/2000/svg">
 <g>
  <path fill="#38bdf8" stroke="#38bdf8" d="m567 63c-42.699 0-77 34.301-77 77 0 8.3984 1.3984 16.801 4.1992 25.199l-114.1 114.1c-9.1016-4.1992-19.602-6.3008-30.102-6.3008-42.699 0-77 34.301-77 77s34.301 77 77 77 77-34.301 77-77c0-16.801-5.6016-31.5-14-44.102l105.7-105.7c13.301 10.5 30.102 16.801 48.301 16.801 42.699 0 77-34.301 77-77s-34.301-77-77-77zm-217 322c-19.602 0-35-15.398-35-35s15.398-35 35-35 35 15.398 35 35-15.398 35-35 35zm217-210c-19.602 0-35-15.398-35-35s15.398-35 35-35 35 15.398 35 35-15.398 35-35 35z"/>
  <path fill="#f0f9ff" stroke="#f0f9ff" d="m350 217c42.699 0 77-34.301 77-77s-34.301-77-77-77-77 34.301-77 77 34.301 77 77 77zm0-112c19.602 0 35 15.398 35 35s-15.398 35-35 35-35-15.398-35-35 15.398-35 35-35z"/>
  <path fill="#f0f9ff" stroke="#f0f9ff" d="m567 273c-42.699 0-77 34.301-77 77s34.301 77 77 77 77-34.301 77-77-34.301-77-77-77zm0 112c-19.602 0-35-15.398-35-35s15.398-35 35-35 35 15.398 35 35-15.398 35-35 35z"/>
  <path fill="#f0f9ff" stroke="#f0f9ff" d="m133 637c42.699 0 77-34.301 77-77s-34.301-77-77-77-77 34.301-77 77 34.301 77 77 77zm0-112c19.602 0 35 15.398 35 35s-15.398 35-35 35-35-15.398-35-35 15.398-35 35-35z"/>
  <path fill="#38bdf8" stroke="#38bdf8" d="m567 483c-35 0-65.102 23.801-74.199 56h-69.301c-9.1016-32.199-38.5-56-74.199-56-21 0-40.602 8.3984-54.602 22.398l-105-105c13.301-13.297 20.301-30.797 20.301-50.398 0-35-23.801-65.102-56-74.199v-62.301c32.199-9.1016 56-38.5 56-74.199 0-42.699-34.301-77-77-77s-77 35-77 77.699c0 35 23.801 65.102 56 74.199v62.301c-32.199 8.3984-56 38.5-56 73.5 0 42.699 34.301 77 77 77 7.6992 0 14.699-1.3984 21.699-2.8008l120.4 120.4c-1.3984 4.9023-2.0977 9.8008-2.0977 15.402 0 42.699 34.301 77 77 77 35 0 65.102-23.801 74.199-56h69.301c9.1016 32.199 38.5 56 74.199 56 42.699 0 77-34.301 77-77s-35-77-77.699-77zm-469-343c0-19.602 15.398-35 35-35s35 15.398 35 35-15.398 35-35 35-35-15.398-35-35zm0 210c0-19.602 15.398-35 35-35s35 15.398 35 35-15.398 35-35 35-35-15.398-35-35zm252 245c-19.602 0-35-15.398-35-35s15.398-35 35-35 35 15.398 35 35-15.398 35-35 35zm217 0c-19.602 0-35-15.398-35-35s15.398-35 35-35 35 15.398 35 35-15.398 35-35 35z"/>
 </g>
</svg>
